<svg width="192" height="192" viewBox="0 0 192 192" fill="none" xmlns="http://www.w3.org/2000/svg">
  <rect width="192" height="192" rx="48" fill="url(#gradient)"/>
  <path d="M96 48C70.5 48 48 70.5 48 96C48 121.5 70.5 144 96 144C121.5 144 144 121.5 144 96C144 70.5 121.5 48 96 48ZM96 120C83.8 120 72 108.2 72 96C72 83.8 83.8 72 96 72C108.2 72 120 83.8 120 96C120 108.2 108.2 120 96 120Z" fill="white"/>
  <circle cx="96" cy="96" r="16" fill="white"/>
  <defs>
    <linearGradient id="gradient" x1="0" y1="0" x2="192" y2="192" gradientUnits="userSpaceOnUse">
      <stop stop-color="#3B82F6"/>
      <stop offset="1" stop-color="#8B5CF6"/>
    </linearGradient>
  </defs>
</svg>

